<?xml version="1.0" encoding="UTF-8" standalone="no"?>
<!-- Created with Inkscape (http://www.inkscape.org/) -->

<svg
   width="120"
   height="120"
   viewBox="0 0 31.750001 31.749999"
   version="1.1"
   id="svg142475"
   inkscape:version="1.1.1 (3bf5ae0d25, 2021-09-20)"
   sodipodi:docname="ocotcat.svg"
   xmlns:inkscape="http://www.inkscape.org/namespaces/inkscape"
   xmlns:sodipodi="http://sodipodi.sourceforge.net/DTD/sodipodi-0.dtd"
   xmlns="http://www.w3.org/2000/svg"
   xmlns:svg="http://www.w3.org/2000/svg">
  <sodipodi:namedview
     id="namedview142477"
     pagecolor="#ffffff"
     bordercolor="#666666"
     borderopacity="1.0"
     inkscape:pageshadow="2"
     inkscape:pageopacity="0.0"
     inkscape:pagecheckerboard="0"
     inkscape:document-units="mm"
     showgrid="false"
     showguides="true"
     inkscape:guide-bbox="true"
     units="px"
     inkscape:zoom="1.28"
     inkscape:cx="263.67188"
     inkscape:cy="91.015625"
     inkscape:window-width="1920"
     inkscape:window-height="1017"
     inkscape:window-x="-8"
     inkscape:window-y="-8"
     inkscape:window-maximized="1"
     inkscape:current-layer="layer1"
     fit-margin-top="0"
     fit-margin-left="0"
     fit-margin-right="0"
     fit-margin-bottom="0" />
  <defs
     id="defs142472" />
  <g
     inkscape:label="Capa 1"
     inkscape:groupmode="layer"
     id="layer1"
     transform="translate(-874.04469,-768.67687)">
    <g
       id="g128669"
       transform="matrix(0,-0.05934697,0.05941567,0,943.66501,676.84387)">
      <circle
         style="fill:#4d4d4d;stroke-width:0;stroke-miterlimit:4;stroke-dasharray:none"
         id="path32224-0"
         cx="-904.5647"
         cy="1814.6857"
         r="173.25302"
         transform="rotate(90)" />
      <g
         id="g38524"
         transform="matrix(0,14.526496,-14.526496,0,-1528.194,-1079.6521)"
         style="fill:#ffffff">
        <path
           style="fill:#ffffff;stroke:#000000;stroke-width:0;stroke-linecap:butt;stroke-linejoin:miter;stroke-miterlimit:4;stroke-dasharray:none;stroke-opacity:1"
           d="m 15.707236,30.378898 c -0.532422,-1.311168 -0.07841,-2.477883 -0.407079,-3.660895 -0.0893,-0.321421 -0.246574,-0.623177 -0.418325,-0.909161 -0.05533,-0.09213 -0.195219,-0.256572 -0.195219,-0.256572 l 0.03347,4e-6 c 0,0 0.569485,0.02198 0.847807,-0.02789 0.532422,-0.09541 1.050095,-0.282668 1.539438,-0.513146 0.428434,-0.20179 0.898072,-0.533088 1.228164,-0.862584 0.330092,-0.329496 0.521056,-0.645403 0.724022,-1.061714 0.205637,-0.421789 0.392384,-0.864458 0.468524,-1.327486 0.135767,-0.825637 0.09393,-1.682981 -0.03346,-2.509953 -0.06089,-0.395309 -0.169934,-0.789777 -0.345816,-1.149001 -0.1826,-0.372945 -0.722062,-1.015137 -0.722062,-1.015137 0,0 0.225373,-0.447723 0.256573,-0.691632 0.0422,-0.329941 0.05308,-0.660394 0.04158,-0.992826 -0.01,-0.288226 -0.07022,-0.537691 -0.148847,-0.803185 -0.0331,-0.111751 -0.09442,-0.243402 -0.172384,-0.332131 -7.54e-4,-8.57e-4 -0.0015,-0.0017 -0.0023,-0.0025 -0.03835,-0.04168 -0.09992,-0.06038 -0.156174,-0.06693 -0.386195,-0.04498 -0.777308,0.08672 -1.149001,0.200797 -0.241653,0.07417 -0.471193,0.187287 -0.691632,0.310996 -0.247563,0.138931 -0.481106,0.3108 -0.702787,0.481034 -0.07935,0.06094 -0.223107,0.200796 -0.223107,0.200796 0,0 -0.693355,-0.204981 -1.048603,-0.267728 -0.257602,-0.0455 -0.519469,-0.06826 -0.780874,-0.07809 -0.758256,-0.02851 -1.520969,-0.0227 -2.275691,0.05578 -0.346023,0.03598 -0.68117,0.145857 -1.026292,0.189641 -0.159008,0.02017 -0.323464,0.06935 -0.4796798,0.03347 -0.451315,-0.103645 -0.871382,-0.47425 -1.3423059,-0.662226 -0.4709239,-0.187976 -0.5837391,-0.237954 -1.1138811,-0.388291 -0.07523,-0.02133 -0.578068,-0.104062 -0.578068,-0.104062 0,0 -0.1263157,0.372781 -0.1746572,0.563345 -0.043814,0.172716 -0.072071,0.34369 -0.1042264,0.524302 -0.045015,0.25284 -0.041122,0.513018 -0.033466,0.769719 0.00646,0.216725 0.033523,0.432778 0.066932,0.64701 0.025171,0.161407 0.1003982,0.47968 0.1003982,0.47968 0,0 -0.2376327,0.198509 -0.3346603,0.317927 -0.1704612,0.209797 -0.3098589,0.445904 -0.4263642,0.689827 -0.086661,0.18144 -0.1525012,0.390746 -0.1997913,0.569174 -0.050908,0.192077 -0.076372,0.351503 -0.1136996,0.585183 -0.0316,0.197831 -0.066993,0.460683 -0.083501,0.649293 -0.031981,0.365406 -0.024573,0.733956 -0.00789,1.100379 0.00793,0.174196 0.017807,0.349475 0.051272,0.52061 0.071049,0.363333 0.180239,0.720271 0.3155209,1.064883 0.1211713,0.308667 0.2640515,0.611366 0.4417292,0.891346 0.1133142,0.178558 0.2453519,0.34692 0.3944007,0.496945 0.218797,0.22023 0.469143,0.408921 0.725699,0.583714 0.344044,0.2344 0.702974,0.452871 1.084603,0.61921 0.165429,0.0721 0.341643,0.117738 0.516665,0.161704 0.176548,0.04435 0.356581,0.07415 0.536386,0.102545 0.282675,0.04464 0.8519058,0.106488 0.8519058,0.106488 0,0 -0.109082,0.13389 -0.15776,0.205089 -0.11618,0.16993 -0.177174,0.331172 -0.2358,0.528497 -0.04421,0.148792 -0.07719,0.338175 -0.1719548,0.465393 -0.08685,0.11659 -0.167513,0.15649 -0.31006,0.209429 -0.155471,0.05774 -0.328006,0.114413 -0.493001,0.131194 -0.271359,0.0276 -0.548186,0.07965 -0.81641,0.03012 -0.336072,-0.06205 -0.661308,-0.21972 -0.930755,-0.429943 -0.219668,-0.171386 -0.356398,-0.42861 -0.524553,-0.650761 C 6.5507971,25.771106 6.2976346,25.370573 5.9325052,25.178075 5.5469454,24.974806 5.0320099,24.784009 4.6451089,24.988248 c -0.1009623,0.05329 -0.1631418,0.199596 -0.1492174,0.310779 0.019599,0.156497 0.1805893,0.21295 0.312967,0.337312 0.1905886,0.179049 0.4544938,0.327862 0.6188132,0.531287 0.1510386,0.186983 0.2441456,0.414144 0.3628491,0.623153 0.1380392,0.243055 0.248761,0.502647 0.4062333,0.733587 0.1336162,0.195954 0.2855139,0.380852 0.4535612,0.548217 0.1409769,0.140405 0.2866589,0.283565 0.4614499,0.378625 0.144273,0.07846 0.309,0.114333 0.469337,0.149873 0.283378,0.06281 0.574562,0.08542 0.863738,0.110432 0.230759,0.01996 0.463158,0.04866 0.694146,0.03155 0.203318,-0.01506 0.600234,-0.117497 0.600234,-0.117497 0,0 0.07848,0.293795 0.09685,0.646391 0.03645,0.361311 0.2392548,0.727398 -0.08848,1.476788 -0.3277351,0.74939 -0.6439329,0.493124 -0.028001,0.624365 1.7073518,0.363796 3.3126728,0.207488 3.3126728,0.207488 0.271891,9.51e-4 2.95107,-0.443656 2.854006,-0.685265 -0.08928,-0.222225 -0.0862,-0.287816 -0.179029,-0.516435 z"
           id="path1160"
           sodipodi:nodetypes="saacccszsssscscssccssscssssczccascscsssssssssssssscssssssssscsssssssssscczsscss" />
        <path
           id="path37826"
           style="fill:#ffffff;fill-opacity:1;stroke-width:0"
           transform="matrix(-0.50651959,0.86222845,0.86222845,0.50651959,0,0)"
           d="m 22.377338,23.63135 c -0.631994,2.426267 -2.172975,4.668196 -4.000225,6.042859"
           sodipodi:nodetypes="cc" />
      </g>
    </g>
  </g>
</svg>
