<?xml version="1.0" encoding="UTF-8" standalone="no"?>
<!-- Created with Inkscape (http://www.inkscape.org/) -->

<svg
   width="120"
   height="120"
   viewBox="0 0 31.750001 31.749999"
   version="1.1"
   id="svg142475"
   inkscape:version="1.1.1 (3bf5ae0d25, 2021-09-20)"
   sodipodi:docname="linkedin_azul.svg"
   xmlns:inkscape="http://www.inkscape.org/namespaces/inkscape"
   xmlns:sodipodi="http://sodipodi.sourceforge.net/DTD/sodipodi-0.dtd"
   xmlns="http://www.w3.org/2000/svg"
   xmlns:svg="http://www.w3.org/2000/svg">
  <sodipodi:namedview
     id="namedview142477"
     pagecolor="#ffffff"
     bordercolor="#666666"
     borderopacity="1.0"
     inkscape:pageshadow="2"
     inkscape:pageopacity="0.0"
     inkscape:pagecheckerboard="0"
     inkscape:document-units="mm"
     showgrid="false"
     showguides="true"
     inkscape:guide-bbox="true"
     units="px"
     inkscape:zoom="5.12"
     inkscape:cx="69.433594"
     inkscape:cy="67.480469"
     inkscape:window-width="1920"
     inkscape:window-height="1017"
     inkscape:window-x="-8"
     inkscape:window-y="-8"
     inkscape:window-maximized="1"
     inkscape:current-layer="layer1"
     fit-margin-top="0"
     fit-margin-left="0"
     fit-margin-right="0"
     fit-margin-bottom="0" />
  <defs
     id="defs142472" />
  <g
     inkscape:label="Capa 1"
     inkscape:groupmode="layer"
     id="layer1"
     transform="translate(-874.04469,-768.67687)">
    <g
       id="g944">
      <rect
         style="fill:#0077b8;fill-opacity:1;fill-rule:evenodd;stroke:#000000;stroke-width:0;stroke-miterlimit:4;stroke-dasharray:none"
         id="rect160915"
         width="19.1276"
         height="19.1276"
         x="880.3559"
         y="774.9881"
         rx="1.7148885"
         ry="1.7148886" />
      <circle
         style="fill:#ffffff;fill-opacity:1;fill-rule:evenodd;stroke:#000000;stroke-width:0;stroke-miterlimit:4;stroke-dasharray:none"
         id="path150791"
         cx="884.93103"
         cy="779.48279"
         r="1.9121908" />
      <rect
         style="fill:#ffffff;fill-opacity:1;fill-rule:evenodd;stroke:#000000;stroke-width:0;stroke-miterlimit:4;stroke-dasharray:none"
         id="rect150895"
         width="2.9032664"
         height="9.3161039"
         x="883.46149"
         y="782.14709"
         rx="0.32647172"
         ry="0.32647175" />
      <g
         id="rect150895-2"
         transform="matrix(0.63817533,0,0,0.63817536,321.99489,283.87019)">
        <path
           style="color:#000000;fill:#ffffff;fill-rule:evenodd;stroke-width:0;-inkscape-stroke:none"
           d="m 886.93576,780.74707 h 3.56149 c 0.28625,0 0.51669,0.23045 0.51669,0.51669 v 13.71081 c 0,0.28625 -0.23044,0.5167 -0.51669,0.5167 h -3.56149 c -0.28625,0 -0.51669,-0.23045 -0.51669,-0.5167 v -13.71081 c 0,-0.28624 0.23044,-0.51669 0.51669,-0.51669 z"
           id="path162361" />
        <path
           style="color:#000000;fill:#000000;fill-rule:evenodd;-inkscape-stroke:none"
           d="m 886.93555,780.74609 c -5.5e-4,0 5.4e-4,0.002 0,0.002 h 3.5625 c -5.4e-4,0 5.4e-4,-0.002 0,-0.002 z"
           id="path162471" />
      </g>
      <path
         style="fill:#ffffff;fill-opacity:1;stroke:#000000;stroke-width:0;stroke-linecap:butt;stroke-linejoin:miter;stroke-miterlimit:4;stroke-dasharray:none;stroke-opacity:1"
         d="m 890.5674,786.58812 c 0,0 0.12656,-0.65677 0.24781,-0.96645 0.0671,-0.17129 0.15558,-0.33571 0.26235,-0.48551 0.0991,-0.13908 0.21093,-0.27363 0.34666,-0.37731 0.12945,-0.0989 0.27654,-0.18312 0.43412,-0.22431 0.22054,-0.0576 0.46045,-0.0708 0.68343,-0.0235 0.2195,0.0466 0.43208,0.15185 0.60539,0.2944 0.15939,0.13111 0.27674,0.31161 0.37311,0.49412 0.077,0.14587 0.12718,0.30692 0.15793,0.46898 0.051,0.26873 0.0343,0.5461 0.0412,0.81953 0.0407,1.62094 0,4.86435 0,4.86435 h 3.05052 v -4.86435 c 0,0 0.002,-0.80662 -0.033,-1.20784 -0.0204,-0.2325 -0.0504,-0.46517 -0.10305,-0.69255 -0.0676,-0.29213 -0.14984,-0.58364 -0.27208,-0.85745 -0.11338,-0.25394 -0.24899,-0.50232 -0.42362,-0.71876 -0.17762,-0.22013 -0.38768,-0.41938 -0.62345,-0.57565 -0.18607,-0.12333 -0.39807,-0.20638 -0.6101,-0.2762 -0.28032,-0.0923 -0.57274,-0.14986 -0.86569,-0.1855 -0.35888,-0.0437 -0.7234,-0.0587 -1.08405,-0.0336 -0.20853,0.0145 -0.41532,0.0551 -0.61806,0.10597 -0.16315,0.0409 -0.32496,0.0913 -0.47869,0.15957 -0.13201,0.0586 -0.25733,0.1326 -0.37734,0.21295 -0.12442,0.0833 -0.24467,0.17441 -0.35317,0.27761 -0.0682,0.0648 -0.12857,0.13786 -0.18534,0.2129 -0.0643,0.085 -0.17492,0.26758 -0.17492,0.26758 l -10e-6,3.31065 z"
         id="path151763"
         sodipodi:nodetypes="caaaaaaaaacccaaaaaasssssssccc" />
    </g>
  </g>
</svg>
