<?xml version="1.0" encoding="UTF-8" standalone="no"?>
<!-- Created with Inkscape (http://www.inkscape.org/) -->

<svg
   width="120"
   height="120"
   viewBox="0 0 31.750001 31.749999"
   version="1.1"
   id="svg142475"
   inkscape:version="1.1.1 (3bf5ae0d25, 2021-09-20)"
   sodipodi:docname="linkedin.svg"
   xmlns:inkscape="http://www.inkscape.org/namespaces/inkscape"
   xmlns:sodipodi="http://sodipodi.sourceforge.net/DTD/sodipodi-0.dtd"
   xmlns="http://www.w3.org/2000/svg"
   xmlns:svg="http://www.w3.org/2000/svg">
  <sodipodi:namedview
     id="namedview142477"
     pagecolor="#ffffff"
     bordercolor="#666666"
     borderopacity="1.0"
     inkscape:pageshadow="2"
     inkscape:pageopacity="0.0"
     inkscape:pagecheckerboard="0"
     inkscape:document-units="mm"
     showgrid="false"
     showguides="true"
     inkscape:guide-bbox="true"
     units="px"
     inkscape:zoom="5.12"
     inkscape:cx="69.433594"
     inkscape:cy="67.480469"
     inkscape:window-width="1920"
     inkscape:window-height="1017"
     inkscape:window-x="-8"
     inkscape:window-y="-8"
     inkscape:window-maximized="1"
     inkscape:current-layer="layer1"
     fit-margin-top="0"
     fit-margin-left="0"
     fit-margin-right="0"
     fit-margin-bottom="0" />
  <defs
     id="defs142472" />
  <g
     inkscape:label="Capa 1"
     inkscape:groupmode="layer"
     id="layer1"
     transform="translate(-874.04469,-768.67687)">
    <g
       id="g162628"
       transform="matrix(0.63817533,0,0,0.63817536,321.99489,283.87019)">
      <rect
         style="fill:#4d4d4d;fill-opacity:1;fill-rule:evenodd;stroke:#000000;stroke-width:0;stroke-miterlimit:4;stroke-dasharray:none"
         id="rect160915"
         width="29.972326"
         height="29.972326"
         x="874.93353"
         y="769.56573"
         rx="2.6871746"
         ry="2.6871746" />
      <circle
         style="fill:#ffffff;fill-opacity:1;fill-rule:evenodd;stroke:#000000;stroke-width:0;stroke-miterlimit:4;stroke-dasharray:none"
         id="path150791"
         cx="882.1026"
         cy="776.60883"
         r="2.9963408" />
      <rect
         style="fill:#ffffff;fill-opacity:1;fill-rule:evenodd;stroke:#000000;stroke-width:0;stroke-miterlimit:4;stroke-dasharray:none"
         id="rect150895"
         width="4.549324"
         height="14.598032"
         x="879.79987"
         y="780.78363"
         rx="0.51157057"
         ry="0.51157057" />
      <g
         id="rect150895-2">
        <path
           style="color:#000000;fill:#ffffff;fill-rule:evenodd;stroke-width:0;-inkscape-stroke:none"
           d="m 886.93576,780.74707 h 3.56149 c 0.28625,0 0.51669,0.23045 0.51669,0.51669 v 13.71081 c 0,0.28625 -0.23044,0.5167 -0.51669,0.5167 h -3.56149 c -0.28625,0 -0.51669,-0.23045 -0.51669,-0.5167 v -13.71081 c 0,-0.28624 0.23044,-0.51669 0.51669,-0.51669 z"
           id="path162361" />
        <path
           style="color:#000000;fill:#000000;fill-rule:evenodd;-inkscape-stroke:none"
           d="m 886.93555,780.74609 c -5.5e-4,0 5.4e-4,0.002 0,0.002 h 3.5625 c -5.4e-4,0 5.4e-4,-0.002 0,-0.002 z"
           id="path162471" />
      </g>
      <path
         style="fill:#ffffff;fill-opacity:1;stroke:#000000;stroke-width:0;stroke-linecap:butt;stroke-linejoin:miter;stroke-miterlimit:4;stroke-dasharray:none;stroke-opacity:1"
         d="m 890.93465,787.74262 c 0,0 0.19831,-1.02914 0.38831,-1.5144 0.10509,-0.2684 0.24378,-0.52605 0.41108,-0.76077 0.15534,-0.21794 0.33053,-0.42878 0.54322,-0.59124 0.20283,-0.15493 0.43332,-0.28694 0.68025,-0.35148 0.34557,-0.0903 0.72151,-0.11096 1.0709,-0.0368 0.34396,0.073 0.67707,0.23795 0.94863,0.46132 0.24977,0.20544 0.43365,0.48828 0.58465,0.77427 0.12068,0.22857 0.19929,0.48093 0.24748,0.73487 0.0799,0.42109 0.0538,0.85572 0.0646,1.28419 0.0638,2.53995 0,7.62227 0,7.62227 h 4.78007 v -7.62227 c 0,0 0.003,-1.26395 -0.0517,-1.89265 -0.032,-0.36432 -0.079,-0.72891 -0.16148,-1.08521 -0.10597,-0.45776 -0.23478,-0.91454 -0.42633,-1.34359 -0.17766,-0.39792 -0.39016,-0.78712 -0.6638,-1.12627 -0.27832,-0.34495 -0.60749,-0.65716 -0.97693,-0.90203 -0.29157,-0.19326 -0.62376,-0.32339 -0.95601,-0.43279 -0.43924,-0.14463 -0.89746,-0.23484 -1.35651,-0.29068 -0.56235,-0.0684 -1.13354,-0.092 -1.69867,-0.0527 -0.32675,0.0227 -0.65079,0.0864 -0.96848,0.16606 -0.25564,0.0641 -0.5092,0.14312 -0.75009,0.25004 -0.20685,0.0918 -0.40322,0.20777 -0.59127,0.33368 -0.19497,0.13054 -0.38339,0.2733 -0.55341,0.435 -0.10683,0.10161 -0.20147,0.21603 -0.29042,0.33361 -0.10074,0.13317 -0.27409,0.4193 -0.27409,0.4193 l -2e-5,5.18767 z"
         id="path151763"
         sodipodi:nodetypes="caaaaaaaaacccaaaaaasssssssccc" />
    </g>
  </g>
</svg>
